<?xml version="1.0" standalone="no"?>
<!DOCTYPE svg PUBLIC "-//W3C//DTD SVG 20010904//EN"
 "http://www.w3.org/TR/2001/REC-SVG-20010904/DTD/svg10.dtd">
<svg version="1.0" xmlns="http://www.w3.org/2000/svg"
 width="300.000000pt" height="32.000000pt" viewBox="0 0 300.000000 32.000000"
 preserveAspectRatio="xMidYMid meet">
<metadata>
Created by potrace 1.10, written by Peter Selinger 2001-2011
</metadata>
<g transform="translate(0.000000,32.000000) scale(0.100000,-0.100000)"
fill="#000000" stroke="none">
<path d="M1328 303 c7 -3 16 -2 19 1 4 3 -2 6 -13 5 -11 0 -14 -3 -6 -6z"/>
<path d="M1020 200 c0 -83 1 -90 20 -90 16 0 20 7 20 35 0 34 1 35 38 35 47 0
62 14 62 57 0 40 -21 53 -89 53 l-51 0 0 -90z m105 35 c0 -14 -9 -21 -32 -26
-31 -6 -33 -5 -33 23 0 27 2 29 33 26 24 -2 32 -8 32 -23z"/>
<path d="M1522 260 c4 -29 -5 -40 -17 -20 -10 16 -40 12 -58 -8 -19 -21 -22
-73 -7 -103 12 -22 59 -26 79 -6 11 10 13 10 7 0 -5 -9 0 -13 13 -13 20 0 21
6 21 90 0 85 -1 90 -21 90 -18 0 -21 -5 -17 -30z m-3 -62 c17 -46 -14 -82 -44
-52 -18 18 -19 28 -5 55 14 26 39 24 49 -3z"/>
<path d="M1590 275 c0 -8 9 -15 20 -15 11 0 20 7 20 15 0 8 -9 15 -20 15 -11
0 -20 -7 -20 -15z"/>
<path d="M1984 200 c-30 -86 -31 -90 -12 -90 11 0 22 8 25 20 8 29 73 29 80 0
3 -13 14 -20 28 -20 l23 0 -32 88 c-28 74 -36 87 -57 90 -22 2 -27 -5 -55 -88z
m70 5 c6 -26 4 -31 -14 -31 -22 0 -23 1 -14 45 8 36 19 31 28 -14z"/>
<path d="M1190 180 c0 -63 2 -70 20 -70 17 0 20 7 20 50 0 43 3 50 20 50 13 0
20 7 20 20 0 24 -8 25 -32 3 -10 -9 -18 -11 -18 -6 0 6 -7 13 -15 17 -12 4
-15 -6 -15 -64z"/>
<path d="M1320 243 c-39 -16 -52 -72 -24 -111 20 -29 74 -30 99 -2 17 19 17
20 1 20 -10 0 -26 -4 -36 -10 -14 -7 -23 -6 -36 8 -17 16 -15 17 34 20 41 2
52 7 52 20 0 23 -11 37 -37 51 -24 12 -30 12 -53 4z m48 -40 c2 -9 -7 -13 -28
-13 -28 0 -31 2 -20 15 15 18 41 16 48 -2z"/>
<path d="M1692 240 c-12 -5 -27 -21 -32 -36 -19 -50 11 -94 64 -94 40 0 66 26
66 66 0 35 -8 47 -37 63 -25 13 -30 13 -61 1z m58 -40 c6 -12 8 -30 5 -41 -10
-29 -59 -22 -63 9 -7 46 38 70 58 32z"/>
<path d="M1842 239 c-18 -7 -23 -15 -20 -36 2 -21 10 -29 38 -36 41 -10 44
-12 36 -26 -4 -6 -20 -5 -46 4 -31 11 -40 11 -40 2 0 -23 23 -37 61 -37 31 0
69 19 69 35 0 20 -18 36 -46 41 -19 3 -37 10 -40 15 -8 14 26 23 39 10 16 -16
37 -14 37 4 0 9 -12 20 -26 25 -30 12 -32 12 -62 -1z"/>
<path d="M2150 153 c0 -86 1 -93 20 -93 17 0 19 5 15 37 -3 28 -2 34 7 25 17
-17 54 -15 72 4 23 22 20 80 -4 104 -23 23 -33 24 -61 10 -10 -6 -19 -7 -19
-2 0 5 -7 9 -15 9 -12 0 -15 -17 -15 -94z m89 49 c12 -23 4 -59 -15 -66 -17
-6 -44 20 -44 43 0 38 42 54 59 23z"/>
<path d="M2306 243 c-3 -3 -6 -46 -6 -95 0 -81 2 -88 20 -88 16 0 20 7 20 38
0 24 3 32 9 24 14 -23 64 -10 79 20 25 52 -22 124 -65 100 -10 -6 -24 -7 -34
-2 -9 5 -19 6 -23 3z m82 -35 c18 -18 14 -56 -6 -67 -24 -13 -42 4 -42 39 0
40 23 53 48 28z"/>
<path d="M1590 175 c0 -58 2 -65 20 -65 18 0 20 7 20 65 0 58 -2 65 -20 65
-18 0 -20 -7 -20 -65z"/>
</g>
</svg>
